<svg xmlns="http://www.w3.org/2000/svg" width="100" height="27.855" viewBox="0 0 100 27.855">
  <path id="Trazado_1131" data-name="Trazado 1131" d="M1436.321,182.232a13.943,13.943,0,0,1-13.927-13.927,10.121,10.121,0,1,0-20.242,0,13.927,13.927,0,1,1-27.855,0,10.121,10.121,0,1,0-20.242,0h-3.807a13.928,13.928,0,1,1,27.855,0,10.121,10.121,0,0,0,20.241,0,13.928,13.928,0,1,1,27.855,0,10.121,10.121,0,0,0,20.241,0h3.807A13.943,13.943,0,0,1,1436.321,182.232Z" transform="translate(-1350.248 -154.377)" fill="#1c75ad"/>
</svg>
