<svg xmlns="http://www.w3.org/2000/svg" width="100" height="28.037" viewBox="0 0 100 28.037">
  <path id="Trazado_1138" data-name="Trazado 1138" d="M340.58,287.571a28.472,28.472,0,0,1-19.112-7.623A24.642,24.642,0,0,1,313.5,261.9h3.837c0,11.819,10.456,21.613,23.307,21.833Zm3.07-.1-.326-3.823a25.2,25.2,0,0,0,7.755-1.921l1.5,3.53A29.033,29.033,0,0,1,343.651,287.467Zm66.014-2.488a21.71,21.71,0,0,0-11.746-18.63l1.823-3.376a25.544,25.544,0,0,1,13.76,21.967Zm-54.311-1.089-1.88-3.345a22.977,22.977,0,0,0,8.239-7.782l.054-.081.3-.427a27.831,27.831,0,0,1,22.851-12.721l.126,3.835a24,24,0,0,0-19.75,10.961l-.053.081-.3.427A26.838,26.838,0,0,1,355.354,283.89Zm40.153-18.679a25.278,25.278,0,0,0-7.785-1.794l.265-3.827a29.094,29.094,0,0,1,8.966,2.067Z" transform="translate(-313.502 -259.534)" fill="#217866"/>
</svg>
