<svg id="Grupo_415" data-name="Grupo 415" xmlns="http://www.w3.org/2000/svg" width="100" height="28.74" viewBox="0 0 100 28.74">
  <path id="Trazado_1124" data-name="Trazado 1124" d="M1123.253,312.549H1118.5a24.45,24.45,0,0,1,.2-3.149l4.711.612A19.775,19.775,0,0,0,1123.253,312.549Z" transform="translate(-1118.502 -286.646)" fill="#ed6b60"/>
  <path id="Trazado_1125" data-name="Trazado 1125" d="M1192.806,290.243l0-4.751a25.13,25.13,0,0,0,5.339-.572l1.011,4.642A29.9,29.9,0,0,1,1192.806,290.243Zm-6.349-.676a29.024,29.024,0,0,1-6.068-2.038l2-4.308a24.275,24.275,0,0,0,5.074,1.7Zm18.764-2.047-2.006-4.306a23.391,23.391,0,0,0,4.549-2.786l2.931,3.739A28.159,28.159,0,0,1,1205.221,287.52Zm-30.307-3.339a26.905,26.905,0,0,1-4.566-4.546l3.734-2.937a22.127,22.127,0,0,0,3.76,3.742Zm-48.03-4.368-4.381-1.838a25.335,25.335,0,0,1,3.257-5.6l3.771,2.889A20.578,20.578,0,0,0,1126.884,279.813Zm88.374-.2-3.737-2.933a20.7,20.7,0,0,0,2.7-4.52l4.357,1.894A25.454,25.454,0,0,1,1215.258,279.615Zm-48.289-4.764a22.237,22.237,0,0,0-3.805-3.7l2.886-3.773a27.017,27.017,0,0,1,4.618,4.494Zm-33.727-3.375-2.972-3.705a28.083,28.083,0,0,1,5.435-3.414l2.053,4.285A23.341,23.341,0,0,0,1133.242,271.476Zm25.339-3.059a24.275,24.275,0,0,0-5.094-1.65l.959-4.653a29.046,29.046,0,0,1,6.09,1.973Zm-15.771-1.536-1.06-4.631a29.9,29.9,0,0,1,6.342-.746l.05,4.75A25.1,25.1,0,0,0,1142.811,266.88Z" transform="translate(-1120.602 -261.503)" fill="#ed6b60"/>
  <path id="Trazado_1126" data-name="Trazado 1126" d="M1323.3,271.1l-4.7-.661a19.817,19.817,0,0,0,.19-2.536l4.751.051A24.5,24.5,0,0,1,1323.3,271.1Z" transform="translate(-1223.541 -264.863)" fill="#ed6b60"/>
</svg>
