<svg xmlns="http://www.w3.org/2000/svg" width="100" height="28.06" viewBox="0 0 100 28.06">
  <g id="Grupo_495" data-name="Grupo 495" transform="translate(-919.501 -2734.986)">
    <path id="Trazado_1743" data-name="Trazado 1743" d="M828.409,52.457a28.162,28.162,0,0,0-23.847,12.737l-.3.427-.053.081A24.294,24.294,0,0,1,783.6,76.678c-12.975,0-23.634-9.7-23.758-21.623l-3.837.04c.146,14.016,12.525,25.42,27.595,25.42a28.159,28.159,0,0,0,23.843-12.732l.3-.427.053-.081a24.3,24.3,0,0,1,20.615-10.984c13.1,0,23.759,9.8,23.759,21.839h3.837c0-14.156-12.38-25.673-27.6-25.673" transform="translate(163.496 2682.53)" fill="#016e81"/>
    <path id="Trazado_1744" data-name="Trazado 1744" d="M781.74,73.513h.267a21.771,21.771,0,0,0,18.291-9.9l.243-.348-3.354-2.348-.322.467a17.828,17.828,0,0,1-15.1,8.028c-9.47,0-17.247-7-17.337-15.615l-4.095.042c.113,10.844,9.727,19.667,21.408,19.667" transform="translate(165.075 2683.021)" fill="#016e81"/>
    <path id="Trazado_1745" data-name="Trazado 1745" d="M814.407,57.32a21.865,21.865,0,0,0-18.56,9.894l-.243.348,3.354,2.348.322-.465a17.642,17.642,0,0,1,15.1-8.03c9.47,0,17.246,7,17.336,15.615l4.095-.042c-.113-10.844-9.726-19.667-21.406-19.667" transform="translate(177.947 2684.305)" fill="#016e81"/>
  </g>
</svg>
