<svg xmlns="http://www.w3.org/2000/svg" width="100" height="28.058" viewBox="0 0 100 28.058">
  <g id="Grupo_419" data-name="Grupo 419" transform="translate(-313.502 -154.5)">
    <path id="Trazado_1139" data-name="Trazado 1139" d="M442.8,154.5a28.742,28.742,0,0,0-19.969,7.961,6.491,6.491,0,0,1,2.926,2.517,24.893,24.893,0,0,1,17.042-6.641c12.976,0,23.634,9.7,23.758,21.624l3.837-.04C470.249,165.9,457.871,154.5,442.8,154.5Z" transform="translate(-56.893)" fill="#016e81"/>
    <path id="Trazado_1140" data-name="Trazado 1140" d="M358.088,174.718a24.9,24.9,0,0,1-16.991,6.59c-13.1,0-23.759-9.8-23.759-21.837H313.5c0,14.156,12.379,25.674,27.6,25.674a28.726,28.726,0,0,0,20.078-8.068A6.483,6.483,0,0,1,358.088,174.718Z" transform="translate(0 -2.587)" fill="#016e81"/>
    <path id="Trazado_1141" data-name="Trazado 1141" d="M408.806,175.811l.054-.081.3-.427a25.826,25.826,0,0,1,3.874-4.776,6.471,6.471,0,0,0-7.85,9.67A22.085,22.085,0,0,0,408.806,175.811Z" transform="translate(-47.093 -8.066)" fill="#016e81"/>
    <path id="Trazado_1142" data-name="Trazado 1142" d="M417.018,180.681l-.053.081-.3.427a25.775,25.775,0,0,1-3.764,4.669,6.464,6.464,0,0,0,7.689-9.512A22.064,22.064,0,0,0,417.018,180.681Z" transform="translate(-51.726 -11.368)" fill="#016e81"/>
  </g>
</svg>
