<svg xmlns="http://www.w3.org/2000/svg" width="102.193" height="28.673" viewBox="0 0 102.193 28.673">
  <g id="Grupo_421" data-name="Grupo 421" transform="translate(415.695 183.173) rotate(180)">
    <path id="Trazado_1146" data-name="Trazado 1146" d="M341.7,183.173c-15.55,0-28.2-11.77-28.2-26.237h3.921c0,12.3,10.892,22.316,24.28,22.316a24.825,24.825,0,0,0,21.067-11.216l.055-.083.3-.437A28.778,28.778,0,0,1,387.5,154.5c15.4,0,28.051,11.654,28.2,25.978l-3.921.041c-.126-12.185-11.018-22.1-24.279-22.1a24.827,24.827,0,0,0-21.068,11.216l-.054.083-.3.437A28.779,28.779,0,0,1,341.7,183.173Z" fill="#FBF9F8"/>
    <path id="Trazado_1147" data-name="Trazado 1147" d="M349.566,178.771H349.4c-11.5,0-20.861-8.723-20.861-19.447h3.921c0,8.561,7.6,15.526,16.94,15.526h.163c9.341,0,16.941-6.964,16.941-15.526h3.921C370.428,170.047,361.07,178.771,349.566,178.771Z" transform="translate(-7.668 -2.46)" fill="#FBF9F8"/>
    <path id="Trazado_1148" data-name="Trazado 1148" d="M357.284,171.909h-.1c-7.413,0-13.444-5.645-13.444-12.585h3.921c0,4.777,4.272,8.664,9.523,8.664h.1c5.251,0,9.523-3.886,9.523-8.664h3.921C370.728,166.263,364.7,171.909,357.284,171.909Z" transform="translate(-15.417 -2.46)" fill="#FBF9F8"/>
  </g>
</svg>
