<svg xmlns="http://www.w3.org/2000/svg" width="100" height="28.058" viewBox="0 0 100 28.058">
  <g id="Grupo_420" data-name="Grupo 420" transform="translate(-313.502 -586.5)">
    <path id="Trazado_1143" data-name="Trazado 1143" d="M341.1,614.558c-15.216,0-27.6-11.517-27.6-25.674h3.837c0,12.04,10.659,21.837,23.759,21.837a24.292,24.292,0,0,0,20.615-10.976l.352-.508A28.161,28.161,0,0,1,385.908,586.5c15.07,0,27.449,11.4,27.595,25.42l-3.837.04c-.124-11.923-10.781-21.624-23.758-21.624a24.293,24.293,0,0,0-20.616,10.976l-.352.508A28.161,28.161,0,0,1,341.1,614.558Z" fill="#FBF9F8"/>
    <path id="Trazado_1144" data-name="Trazado 1144" d="M348.714,609.22l-.22-3.83a19.3,19.3,0,0,0,6.752-1.623l1.558,3.506A23.1,23.1,0,0,1,348.714,609.22Zm-3.125-.025a23.043,23.043,0,0,1-8.056-2.08l1.616-3.48a19.24,19.24,0,0,0,6.721,1.734Zm13.993-3.4-2.033-3.254a17.462,17.462,0,0,0,5.019-4.7l3.126,2.224A21.277,21.277,0,0,1,359.582,605.8Zm-24.8-.2a21.181,21.181,0,0,1-6.011-5.835l3.168-2.164a17.389,17.389,0,0,0,4.931,4.781ZM327.189,597a19.179,19.179,0,0,1-1.85-8.241h3.837a15.376,15.376,0,0,0,1.483,6.6Z" transform="translate(-6.16 -1.176)" fill="#FBF9F8"/>
    <path id="Trazado_1145" data-name="Trazado 1145" d="M466.7,619.3h-3.837a15.376,15.376,0,0,0-1.483-6.6l3.47-1.637A19.181,19.181,0,0,1,466.7,619.3Zm-6.6-8.834a17.387,17.387,0,0,0-4.931-4.781l2.088-3.219a21.193,21.193,0,0,1,6.011,5.835Zm-30.631-.255-3.126-2.224a21.268,21.268,0,0,1,6.113-5.725l2.033,3.254A17.464,17.464,0,0,0,429.472,610.213Zm23.419-5.786a19.237,19.237,0,0,0-6.721-1.733l.281-3.826a23.057,23.057,0,0,1,8.056,2.08Zm-16.1-.131-1.558-3.507a23.121,23.121,0,0,1,8.09-1.947l.22,3.83A19.29,19.29,0,0,0,436.794,604.3Z" transform="translate(-58.722 -6.423)" fill="#FBF9F8"/>
  </g>
</svg>
