<svg xmlns="http://www.w3.org/2000/svg" width="100" height="28.741" viewBox="0 0 100 28.741">
  <path id="Trazado_1123" data-name="Trazado 1123" d="M1190.693,182.241a28.374,28.374,0,0,1-24.012-12.828l-.355-.514a23.585,23.585,0,0,0-20.017-10.649c-12.594,0-22.937,9.4-23.057,20.948l-4.751-.049c.147-14.143,12.621-25.65,27.807-25.65a28.374,28.374,0,0,1,24.012,12.828l.355.514a23.585,23.585,0,0,0,20.017,10.649c12.715,0,23.058-9.49,23.058-21.154h4.751C1218.5,170.621,1206.027,182.241,1190.693,182.241Z" transform="translate(-1118.502 -153.5)" fill="#008b6f"/>
</svg>
