<svg xmlns="http://www.w3.org/2000/svg" width="100.209" height="28.115" viewBox="0 0 100.209 28.115">
  <g id="Grupo_585" data-name="Grupo 585" transform="translate(-1055.502 -586.504)">
    <path id="Trazado_1128" data-name="Trazado 1128" d="M1057.424,634.717a1.923,1.923,0,0,1-1.922-1.923,24.17,24.17,0,0,1,.562-5.183,1.922,1.922,0,1,1,3.755.826,20.35,20.35,0,0,0-.472,4.357A1.923,1.923,0,0,1,1057.424,634.717Z" transform="translate(0 -20.566)" fill="#FBF9F8"/>
    <path id="Trazado_1129" data-name="Trazado 1129" d="M1132.735,614.618a30.1,30.1,0,0,1-3.7-.228,1.923,1.923,0,1,1,.475-3.816,26.223,26.223,0,0,0,8.637-.37,1.923,1.923,0,0,1,.8,3.761A29.809,29.809,0,0,1,1132.735,614.618Zm-12.343-2.912a1.919,1.919,0,0,1-.868-.208,27.332,27.332,0,0,1-7.943-6.035,1.922,1.922,0,1,1,2.849-2.581,23.517,23.517,0,0,0,6.832,5.186,1.923,1.923,0,0,1-.87,3.638Zm26.765-1.174a1.923,1.923,0,0,1-1.023-3.552,22.968,22.968,0,0,0,6.3-5.8,1.923,1.923,0,1,1,3.09,2.289,26.826,26.826,0,0,1-7.347,6.767A1.916,1.916,0,0,1,1147.157,610.532Zm-80.729-9.6a1.922,1.922,0,0,1-1.556-3.048,26.756,26.756,0,0,1,7.272-6.847,1.923,1.923,0,0,1,2.078,3.236,22.918,22.918,0,0,0-6.235,5.863A1.919,1.919,0,0,1,1066.428,600.933Zm40.953-2.262a1.918,1.918,0,0,1-1.412-.616,23.541,23.541,0,0,0-6.887-5.116,1.922,1.922,0,1,1,1.7-3.447,27.362,27.362,0,0,1,8.006,5.951,1.922,1.922,0,0,1-1.41,3.228Zm-25.63-7.655a1.923,1.923,0,0,1-.419-3.8,30.108,30.108,0,0,1,9.911-.521,1.922,1.922,0,0,1-.437,3.82,26.218,26.218,0,0,0-8.633.454A1.959,1.959,0,0,1,1081.751,591.016Z" transform="translate(-4.677 0)" fill="#FBF9F8"/>
    <path id="Trazado_1130" data-name="Trazado 1130" d="M1256.744,596.567a1.923,1.923,0,0,1-1.875-2.356,20.3,20.3,0,0,0,.518-4.352,1.923,1.923,0,0,1,1.922-1.9h.02a1.923,1.923,0,0,1,1.9,1.942,24.179,24.179,0,0,1-.616,5.178A1.923,1.923,0,0,1,1256.744,596.567Z" transform="translate(-103.521 -0.755)" fill="#FBF9F8"/>
  </g>
</svg>
