<svg xmlns="http://www.w3.org/2000/svg" width="82.78" height="26" viewBox="0 0 82.78 26">
  <path id="Trazado_1883" data-name="Trazado 1883" d="M61.787.454A26.28,26.28,0,0,0,42.77,8.46c-.279.293-.526.61-.791.913A26.018,26.018,0,0,0,22.129.454,26.28,26.28,0,0,0,3.112,8.46,24.07,24.07,0,0,0,0,12.467a23.355,23.355,0,0,0,2.62,4.3,18.969,18.969,0,0,1,2.5-4.017A21.672,21.672,0,0,1,20.219,4.9V26.453h3.838V4.884A21.62,21.62,0,0,1,40.432,14.5c.065-.079.12-.168.184-.248a24.069,24.069,0,0,0,1.662,2.52,18.97,18.97,0,0,1,2.5-4.017A21.672,21.672,0,0,1,59.877,4.9V26.453h3.838V4.884A21.62,21.62,0,0,1,80.089,14.5a21.5,21.5,0,0,0,1.336-1.805l.325-.471c.326-.5.672-.982,1.03-1.455A26.021,26.021,0,0,0,61.787.454" transform="translate(0 -0.453)" fill="#FBF9F8"/>
</svg>
