<svg xmlns="http://www.w3.org/2000/svg" width="100" height="28.987" viewBox="0 0 100 28.987">
  <path id="Trazado_1882" data-name="Trazado 1882" d="M1157.628,383.961a29.709,29.709,0,0,0-47.72-2.742,29.4,29.4,0,0,0-22.9-10.72c-15.569,0-28.357,11.781-28.509,26.262l3.964.042c.128-12.318,11.138-22.34,24.545-22.34a25.1,25.1,0,0,1,21.3,11.339l.363.525a29.639,29.639,0,0,0,49.177.137l.654-1.027ZM1133.3,395.523a25.163,25.163,0,0,1-21.009-10.889,25.083,25.083,0,0,1,20.515-10.17,25.355,25.355,0,0,1,19.7,9.113,41.611,41.611,0,0,1-14.734,2.744,32.239,32.239,0,0,1-12.822-2.525l-1.59,3.632a36.245,36.245,0,0,0,14.4,2.857h.133a44.726,44.726,0,0,0,13.527-2.125A25.681,25.681,0,0,1,1133.3,395.523Z" transform="translate(1158.502 399.487) rotate(180)" fill="#FBF9F8"/>
</svg>
