<svg xmlns="http://www.w3.org/2000/svg" width="100" height="34.619" viewBox="0 0 100 34.619">
  <g id="Grupo_586" data-name="Grupo 586" transform="translate(-520.246 -2682.53)">
    <path id="Trazado_1747" data-name="Trazado 1747" d="M441.247,14.067,430.9,24.41,406.674.18,389.132,17.722a9.81,9.81,0,0,1,2.235,3.2L406.674,5.614l24.23,24.23,13.06-13.06Z" transform="translate(176.282 2682.601)" fill="#054b85"/>
    <path id="Trazado_1748" data-name="Trazado 1748" d="M388.328,17.909,370.42,0,356.75,13.67l2.717,2.717L370.42,5.434l15.73,15.73a9.771,9.771,0,0,1,2.179-3.256" transform="translate(163.496 2682.53)" fill="#054b85"/>
    <path id="Trazado_1749" data-name="Trazado 1749" d="M392.978,13.522a9.745,9.745,0,0,0-13.59.114l6.737,6.739Z" transform="translate(172.435 2686.802)" fill="#054b85"/>
    <path id="Trazado_1750" data-name="Trazado 1750" d="M378.033,15.222a9.764,9.764,0,1,0,18-.172l-9.087,9.087Z" transform="translate(171.613 2688.473)" fill="#054b85"/>
  </g>
</svg>
