<svg xmlns="http://www.w3.org/2000/svg" xmlns:xlink="http://www.w3.org/1999/xlink" width="442" height="97" viewBox="0 0 442 97">
  <defs>
    <clipPath id="clip-path">
      <rect id="Rectángulo_1674" data-name="Rectángulo 1674" width="442" height="97" fill="none"/>
    </clipPath>
  </defs>
  <g id="Grupo_628" data-name="Grupo 628" transform="translate(0 0.363)">
    <g id="Grupo_626" data-name="Grupo 626" transform="translate(0 -0.363)" clip-path="url(#clip-path)">
      <g id="Grupo_625" data-name="Grupo 625">
        <g id="Grupo_624" data-name="Grupo 624" clip-path="url(#clip-path)">
          <g id="Grupo_623" data-name="Grupo 623" opacity="0">
            <g id="Grupo_622" data-name="Grupo 622">
              <g id="Grupo_621" data-name="Grupo 621" clip-path="url(#clip-path)">
                <rect id="Rectángulo_1663" data-name="Rectángulo 1663" width="442" height="97" fill="#fff"/>
              </g>
            </g>
          </g>
          <path id="Trazado_1891" data-name="Trazado 1891" d="M42.249,64.233a82.908,82.908,0,0,0,22.918,38.523,79.225,79.225,0,0,0,34.769-18.68,5.433,5.433,0,0,1-.6-.581v0a9.942,9.942,0,0,0-6-2.684c-4.216-.286-9.706,5.993-9.706,5.993v0a17.573,17.573,0,1,1,2.338-18.976v-.006s3.811,7.9,7.926,8.653a10.3,10.3,0,0,0,6.575-1.168v0a5.43,5.43,0,0,1,1.361-.636A83.354,83.354,0,0,0,81.588,41.568,86.939,86.939,0,0,0,42.249,64.233M83.222,49.769a4.238,4.238,0,1,1-4.236-4.238,4.236,4.236,0,0,1,4.236,4.238" transform="translate(-24.18 -23.333)" fill="#a2c86e"/>
          <path id="Trazado_1892" data-name="Trazado 1892" d="M173.842,84.723q.751,2.775,1.32,5.6,1.645,3.645,2.914,7.417,1.191-2.717,2.152-5.5a74.169,74.169,0,0,0-6.385-7.52" transform="translate(-99.495 -48.032)" fill="#ffb300"/>
          <path id="Trazado_1893" data-name="Trazado 1893" d="M98.431,40.531q-2.825-1.325-5.71-2.421a82.5,82.5,0,0,0-7.593,6.782q3.195-.895,6.456-1.558,3.373-1.55,6.848-2.8" transform="translate(-48.721 -21.354)" fill="#ffb300"/>
          <path id="Trazado_1894" data-name="Trazado 1894" d="M113.139,176.625q2.829,1.224,5.728,2.2a75.618,75.618,0,0,0,7.91-6.935q-2.812.846-5.686,1.493a79.938,79.938,0,0,1-7.951,3.24" transform="translate(-64.753 -97.921)" fill="#ffb300"/>
          <path id="Trazado_1895" data-name="Trazado 1895" d="M41.267,112.313q-1.345,2.907-2.453,5.882a83.5,83.5,0,0,0,7.272,7.917q-1-3.224-1.745-6.53c-1.138-2.382-2.164-4.81-3.074-7.269" transform="translate(-22.214 -63.822)" fill="#ffb300"/>
          <path id="Trazado_1896" data-name="Trazado 1896" d="M64.47,156.6q2.337.236,4.7.324A82.58,82.58,0,0,1,58.5,142.157,76.977,76.977,0,0,0,64.47,156.6" transform="translate(-33.48 -80.903)" fill="#a8e1f5"/>
          <path id="Trazado_1897" data-name="Trazado 1897" d="M158.393,149.651q.25-2.2.367-4.422a80.422,80.422,0,0,1-13.887,9.989,76.215,76.215,0,0,0,13.52-5.567" transform="translate(-82.915 -82.661)" fill="#a8e1f5"/>
          <path id="Trazado_1898" data-name="Trazado 1898" d="M50.28,62.656q-.186,2.567-.209,5.168A88.833,88.833,0,0,1,66.192,56.61,85.143,85.143,0,0,0,50.28,62.656" transform="translate(-28.657 -31.942)" fill="#a8e1f5"/>
          <path id="Trazado_1899" data-name="Trazado 1899" d="M150.879,49.708q-2.418-.2-4.866-.258a86.062,86.062,0,0,1,10.525,15.227,83.965,83.965,0,0,0-5.659-14.969" transform="translate(-83.568 -27.844)" fill="#a8e1f5"/>
          <path id="Trazado_1900" data-name="Trazado 1900" d="M87.056,110.006a8.775,8.775,0,1,1,9.546,7.925,8.778,8.778,0,0,1-9.546-7.925" transform="translate(-49.803 -57.014)" fill="#00a4dc"/>
          <path id="Trazado_1901" data-name="Trazado 1901" d="M178.973,127.775a2.732,2.732,0,1,1,2.973,2.469,2.731,2.731,0,0,1-2.973-2.469" transform="translate(-102.425 -70.964)" fill="#00a4dc"/>
          <path id="Trazado_1902" data-name="Trazado 1902" d="M123.19,57.906a2.12,2.12,0,1,1,2.121,2.118,2.122,2.122,0,0,1-2.121-2.118" transform="translate(-70.506 -31.47)" fill="#00a4dc"/>
          <path id="Trazado_1903" data-name="Trazado 1903" d="M208.646,71.641c-4.563-2.087-6.407-3.3-6.407-5.969,0-2.087,1.7-4.125,5.484-4.125a14.371,14.371,0,0,1,6.649,1.6l1.505-5.872a18.076,18.076,0,0,0-8.008-1.7c-8.056,0-12.86,4.707-12.86,10.822,0,4.853,3.495,8.347,9.123,10.773,4.126,1.8,5.921,3.4,5.921,6.066,0,2.767-2.087,4.659-6.066,4.659a16.742,16.742,0,0,1-8.057-2.087l-.009.041a5.459,5.459,0,0,1-1.289,6.038,20.215,20.215,0,0,0,9.063,2.025c8.686,0,13.588-4.757,13.588-11.259,0-4.9-2.669-8.347-8.638-11.016" transform="translate(-111.394 -31.351)" fill="#00a4dc"/>
          <path id="Trazado_1904" data-name="Trazado 1904" d="M256.989,54.67a3.834,3.834,0,1,0,3.882,3.834,3.7,3.7,0,0,0-3.882-3.834" transform="translate(-144.889 -30.831)" fill="#00a4dc"/>
          <rect id="Rectángulo_1665" data-name="Rectángulo 1665" width="7.183" height="27.031" transform="translate(108.557 35.049)" fill="#00a4dc"/>
          <path id="Trazado_1905" data-name="Trazado 1905" d="M298.375,73.81v-.194c3.979-1.5,5.968-4.659,5.968-8.056a8.256,8.256,0,0,0-3.638-7.036c-2.572-1.8-5.775-2.378-10.288-2.378a53.276,53.276,0,0,0-9.464.776V93.61a58.74,58.74,0,0,0,7.96.485c6.647,0,10.821-1.213,13.344-3.494a10.259,10.259,0,0,0,3.4-7.668,9.2,9.2,0,0,0-7.279-9.123M288.088,61.726a14.786,14.786,0,0,1,3.154-.242c3.2,0,5.97,1.213,5.97,4.9,0,3.057-2.427,5.241-6.5,5.241h-2.621Zm2.863,26.982a14.905,14.905,0,0,1-2.863-.194V76.867h2.668c3.689,0,7.378,1.553,7.378,5.872,0,4.222-3.3,5.969-7.183,5.969" transform="translate(-160.798 -31.676)" fill="#00a4dc"/>
          <path id="Trazado_1906" data-name="Trazado 1906" d="M208.935,155.3a2.814,2.814,0,0,0-2.514,1.672,9.571,9.571,0,0,0-.933,4.63,11.638,11.638,0,0,0,.43,3.352,4.937,4.937,0,0,0,1.236,2.194,2.624,2.624,0,0,0,1.866.767,4.151,4.151,0,0,0,1.877-.393v.863a3.912,3.912,0,0,1-1.963.431,3.463,3.463,0,0,1-2.332-.863,5.5,5.5,0,0,1-1.547-2.495,12.269,12.269,0,0,1-.546-3.874,9.936,9.936,0,0,1,1.192-5.268,3.666,3.666,0,0,1,3.252-1.915A4.163,4.163,0,0,1,211.2,155l-.432.823a3.309,3.309,0,0,0-1.829-.517" transform="translate(-117.048 -87.913)" fill="#00a4dc"/>
          <path id="Trazado_1907" data-name="Trazado 1907" d="M227.968,168.265a7.951,7.951,0,0,1-.828,4.018,2.612,2.612,0,0,1-2.371,1.394,2.555,2.555,0,0,1-2.332-1.394,8.109,8.109,0,0,1-.809-4.018q0-5.373,3.179-5.373a2.582,2.582,0,0,1,2.328,1.408,7.833,7.833,0,0,1,.832,3.965m-5.391,0a8.352,8.352,0,0,0,.536,3.4,1.761,1.761,0,0,0,1.675,1.149q2.234,0,2.233-4.549,0-4.511-2.233-4.511a1.753,1.753,0,0,0-1.69,1.13,8.427,8.427,0,0,0-.521,3.381" transform="translate(-126.845 -92.77)" fill="#00a4dc"/>
          <rect id="Rectángulo_1666" data-name="Rectángulo 1666" width="0.91" height="14.903" transform="translate(102.835 65.812)" fill="#00a4dc"/>
          <path id="Trazado_1908" data-name="Trazado 1908" d="M252.985,168.265a7.936,7.936,0,0,1-.83,4.018,2.611,2.611,0,0,1-2.37,1.394,2.556,2.556,0,0,1-2.332-1.394,8.1,8.1,0,0,1-.81-4.018q0-5.373,3.18-5.373a2.582,2.582,0,0,1,2.327,1.408,7.831,7.831,0,0,1,.834,3.965m-5.393,0a8.352,8.352,0,0,0,.536,3.4,1.762,1.762,0,0,0,1.676,1.149q2.232,0,2.232-4.549,0-4.511-2.232-4.511a1.752,1.752,0,0,0-1.69,1.13,8.4,8.4,0,0,0-.523,3.381" transform="translate(-141.162 -92.77)" fill="#00a4dc"/>
          <path id="Trazado_1909" data-name="Trazado 1909" d="M274.264,173.485v-7.078q0-2.615-1.533-2.615a1.579,1.579,0,0,0-1.517.915,6.136,6.136,0,0,0-.465,2.7v6.082h-.9v-7.078a4.033,4.033,0,0,0-.373-1.968,1.245,1.245,0,0,0-1.159-.647,1.574,1.574,0,0,0-1.5.939,7.28,7.28,0,0,0-.467,3.045v5.709h-.91V163.093h.766l.076,1.446h.086a2.185,2.185,0,0,1,2.117-1.647,1.932,1.932,0,0,1,1.36.46,2.657,2.657,0,0,1,.718,1.341,3.135,3.135,0,0,1,.92-1.379,2.25,2.25,0,0,1,1.416-.422,1.865,1.865,0,0,1,1.724.9,5.826,5.826,0,0,1,.547,2.9v6.791Z" transform="translate(-151.916 -92.77)" fill="#00a4dc"/>
          <path id="Trazado_1910" data-name="Trazado 1910" d="M296.241,157.143q3.047,0,3.047,5.354a8.6,8.6,0,0,1-.757,4.028,2.427,2.427,0,0,1-3.544.972,3.079,3.079,0,0,1-1.014-1.216H293.9l-.125,1.437h-.747v-14.9h.909v4.626l-.037,1.255h.077a2.509,2.509,0,0,1,2.268-1.552m-.037.843a1.811,1.811,0,0,0-1.734,1.053,8.139,8.139,0,0,0-.537,3.458v.239q0,4.349,2.308,4.348a1.679,1.679,0,0,0,1.577-1.12,11.629,11.629,0,0,0,.014-6.848,1.7,1.7,0,0,0-1.628-1.13" transform="translate(-167.707 -87.002)" fill="#00a4dc"/>
          <rect id="Rectángulo_1667" data-name="Rectángulo 1667" width="0.91" height="10.392" transform="translate(133.292 70.323)" fill="#00a4dc"/>
          <path id="Trazado_1911" data-name="Trazado 1911" d="M321.86,173.485l-.117-1.456h-.037a2.41,2.41,0,0,1-2.262,1.647,1.952,1.952,0,0,1-1.632-.81,3.478,3.478,0,0,1-.618-2.169,3.134,3.134,0,0,1,.89-2.352,3.7,3.7,0,0,1,2.5-.943l1.121-.058v-.862a4.649,4.649,0,0,0-.364-2.121,1.266,1.266,0,0,0-1.207-.666,3.414,3.414,0,0,0-1.82.584l-.393-.718a4.246,4.246,0,0,1,2.27-.671,2.093,2.093,0,0,1,1.848.81,4.883,4.883,0,0,1,.565,2.705v7.078Zm-2.214-.585a1.673,1.673,0,0,0,1.519-.962,5.623,5.623,0,0,0,.541-2.725v-1.082l-1.082.057a2.7,2.7,0,0,0-1.862.695,2.53,2.53,0,0,0-.608,1.834,2.744,2.744,0,0,0,.4,1.657,1.3,1.3,0,0,0,1.091.526" transform="translate(-181.541 -92.77)" fill="#00a4dc"/>
          <path id="Trazado_1912" data-name="Trazado 1912" d="M312.481,153.559a.746.746,0,1,1-.747-.746.746.746,0,0,1,.747.746" transform="translate(-177.99 -87.002)" fill="#00a4dc"/>
          <path id="Trazado_1913" data-name="Trazado 1913" d="M434.647,66.563a7.888,7.888,0,0,0,2.365-1.971,4.525,4.525,0,0,0,.788-2.759,5.56,5.56,0,0,0-.788-2.956,6.265,6.265,0,0,0-2.365-2.168,11.52,11.52,0,0,0-4.138-.591h-8.474V78.583h8.671a17.67,17.67,0,0,0,3.547-.394,6.1,6.1,0,0,0,2.562-1.182,4.772,4.772,0,0,0,1.577-2.168,7.912,7.912,0,0,0,.591-2.956,4.973,4.973,0,0,0-1.182-3.35,7.212,7.212,0,0,0-3.153-1.971m-9.853-7.883h4.532a11.712,11.712,0,0,1,3.35.394,3.065,3.065,0,0,1,1.576,1.183,3.58,3.58,0,0,1,0,3.941,2.87,2.87,0,0,1-1.773,1.182,10.465,10.465,0,0,1-2.759.2h-4.927Zm10.444,15.174c-.394.591-.591.985-1.183,1.182a18.584,18.584,0,0,1-1.773.591c-.394,0-.985.2-1.971.2H424.6V68.139h5.124a14.143,14.143,0,0,1,3.35.394,2.506,2.506,0,0,1,1.774,1.379,4.491,4.491,0,0,1,.591,2.168,1.467,1.467,0,0,1-.2,1.774" transform="translate(-241.544 -31.66)" fill="#3f4d63"/>
          <rect id="Rectángulo_1668" data-name="Rectángulo 1668" width="2.956" height="22.663" transform="translate(201.971 24.261)" fill="#3f4d63"/>
          <path id="Trazado_1914" data-name="Trazado 1914" d="M505.4,56.312a10.773,10.773,0,0,0-5.715-1.576,10.547,10.547,0,0,0-7.882,3.152q-2.956,3.252-2.956,8.869a11.663,11.663,0,0,0,1.379,5.715,10.906,10.906,0,0,0,3.744,4.138,10.771,10.771,0,0,0,5.715,1.577,10.935,10.935,0,0,0,5.518-1.38,9.978,9.978,0,0,0,3.941-4.138,12.667,12.667,0,0,0,1.38-6.109,12.665,12.665,0,0,0-1.38-6.109,9.534,9.534,0,0,0-3.744-4.139m0,16.947a7.619,7.619,0,0,1-11.036,0,9.573,9.573,0,0,1-2.168-6.5c0-3.35.788-5.912,2.365-7.291a8.089,8.089,0,0,1,5.518-2.168,6.658,6.658,0,0,1,3.941,1.182,7.172,7.172,0,0,1,2.759,3.153,11.911,11.911,0,0,1,.985,4.73c-.2,3.153-.985,5.321-2.365,6.9" transform="translate(-279.784 -30.869)" fill="#3f4d63"/>
          <path id="Trazado_1915" data-name="Trazado 1915" d="M564.19,57.628a6.629,6.629,0,0,0-3.35-1.577,18.7,18.7,0,0,0-3.941-.394h-7.686V78.319h8.079a17.67,17.67,0,0,0,3.547-.394,6.911,6.911,0,0,0,2.759-1.182,9.325,9.325,0,0,0,1.971-1.971,10.615,10.615,0,0,0,1.577-3.35,15.806,15.806,0,0,0,.591-4.532,15.108,15.108,0,0,0-.788-5.321,11.755,11.755,0,0,0-2.759-3.941m-.2,13.6a7.272,7.272,0,0,1-1.576,2.759,4.093,4.093,0,0,1-1.971,1.182,14.676,14.676,0,0,1-3.547.394h-4.729V58.416H556.9a17.247,17.247,0,0,1,3.941.394,4.931,4.931,0,0,1,2.759,2.562,10.433,10.433,0,0,1,1.183,5.518,21.483,21.483,0,0,1-.788,4.335" transform="translate(-314.332 -31.396)" fill="#3f4d63"/>
          <rect id="Rectángulo_1669" data-name="Rectángulo 1669" width="2.956" height="22.663" transform="translate(257.937 24.261)" fill="#3f4d63"/>
          <path id="Trazado_1916" data-name="Trazado 1916" d="M629.036,78.32,637.9,55.657h-2.956l-6.109,16.357c-.394,1.182-.788,2.365-1.182,3.744-.394-1.183-.788-2.365-1.182-3.744l-5.912-16.357h-3.153L626.08,78.32Z" transform="translate(-353.363 -31.396)" fill="#3f4d63"/>
          <path id="Trazado_1917" data-name="Trazado 1917" d="M688.533,75.56H674.739V68.072H687.35V65.313H674.739v-6.9h13.4V55.657H671.783V78.319h16.75Z" transform="translate(-384.483 -31.396)" fill="#3f4d63"/>
          <path id="Trazado_1918" data-name="Trazado 1918" d="M723.779,68.533h3.547c.788,0,1.38,0,1.577.2.394.2.985.394,1.379.591a5.791,5.791,0,0,1,1.576,1.577,27.891,27.891,0,0,1,2.168,3.153l2.956,4.73h3.744l-3.941-6.109a12.593,12.593,0,0,0-2.562-2.956,6.882,6.882,0,0,0-1.774-1.183c2.167-.394,3.744-.985,4.73-2.167a5.985,5.985,0,0,0,1.576-4.139,6.644,6.644,0,0,0-.985-3.35,4.66,4.66,0,0,0-2.562-2.168,14.021,14.021,0,0,0-4.532-.591H720.626V78.583h2.956V68.533Zm0-10.05h7.094a6.528,6.528,0,0,1,3.744.985A3.176,3.176,0,0,1,735.8,62.03,3.331,3.331,0,0,1,735.209,64a4.294,4.294,0,0,1-1.774,1.38,7.223,7.223,0,0,1-3.153.394h-6.5Z" transform="translate(-412.437 -31.66)" fill="#3f4d63"/>
          <path id="Trazado_1919" data-name="Trazado 1919" d="M785.5,66.5a22.641,22.641,0,0,0-4.927-1.38,12.391,12.391,0,0,1-4.532-1.576,2.531,2.531,0,0,1-.788-1.971,2.809,2.809,0,0,1,1.182-2.365,6.775,6.775,0,0,1,3.941-.985,5.882,5.882,0,0,1,3.941,1.183,4.449,4.449,0,0,1,1.577,3.153l2.956-.2a5.5,5.5,0,0,0-1.182-3.547,7.168,7.168,0,0,0-2.956-2.365,10.6,10.6,0,0,0-4.335-.788,9.136,9.136,0,0,0-4.138.788,6.188,6.188,0,0,0-2.759,2.167,5.957,5.957,0,0,0-.985,3.153,4.526,4.526,0,0,0,.788,2.759,8.4,8.4,0,0,0,2.365,2.168,18.654,18.654,0,0,0,4.335,1.379,13.5,13.5,0,0,1,3.941,1.182,3.9,3.9,0,0,1,1.971,1.38,3.179,3.179,0,0,1,.591,1.774,3.331,3.331,0,0,1-.591,1.971,3.9,3.9,0,0,1-1.971,1.379,7.9,7.9,0,0,1-2.956.591,10.3,10.3,0,0,1-3.547-.591,4.459,4.459,0,0,1-2.365-1.774,5.755,5.755,0,0,1-.985-2.759l-2.759.2A7.284,7.284,0,0,0,772.5,75.56a7.166,7.166,0,0,0,3.153,2.759,13.173,13.173,0,0,0,5.123.985,10.018,10.018,0,0,0,4.335-.788,6.268,6.268,0,0,0,2.956-2.562,7.259,7.259,0,0,0,.985-3.35,5.448,5.448,0,0,0-.985-3.153c-.591-.788-1.182-2.365-2.562-2.956" transform="translate(-441.447 -31.396)" fill="#3f4d63"/>
          <rect id="Rectángulo_1670" data-name="Rectángulo 1670" width="2.956" height="22.663" transform="translate(352.528 24.261)" fill="#3f4d63"/>
          <path id="Trazado_1920" data-name="Trazado 1920" d="M858.5,76.743a9.359,9.359,0,0,0,1.971-1.971,10.621,10.621,0,0,0,1.576-3.35,15.787,15.787,0,0,0,.591-4.532,15.1,15.1,0,0,0-.788-5.321,11,11,0,0,0-2.759-3.941,6.633,6.633,0,0,0-3.35-1.576,18.7,18.7,0,0,0-3.941-.394h-7.686V78.32h8.08a17.67,17.67,0,0,0,3.547-.394,6.906,6.906,0,0,0,2.759-1.182m-6.7-1.182h-4.73V58.416h4.73a17.245,17.245,0,0,1,3.941.394,4.933,4.933,0,0,1,2.759,2.562,10.929,10.929,0,0,1,1.182,5.518,13.541,13.541,0,0,1-.591,4.336,7.271,7.271,0,0,1-1.576,2.759,4.088,4.088,0,0,1-1.971,1.182,18.126,18.126,0,0,1-3.744.394" transform="translate(-483.115 -31.396)" fill="#3f4d63"/>
          <path id="Trazado_1921" data-name="Trazado 1921" d="M908.854,78.32h3.35l-9.262-22.663h-3.153L891.118,78.32h3.153l2.562-6.9h9.459Zm-11.233-9.262,2.561-6.7a17.75,17.75,0,0,0,1.183-4.335c.395,1.183.788,2.759,1.576,4.73l2.365,6.306Z" transform="translate(-510.015 -31.396)" fill="#3f4d63"/>
          <path id="Trazado_1922" data-name="Trazado 1922" d="M957.776,77.925a6.9,6.9,0,0,0,2.759-1.182,9.362,9.362,0,0,0,1.971-1.971,10.624,10.624,0,0,0,1.576-3.35,15.808,15.808,0,0,0,.591-4.532,15.107,15.107,0,0,0-.788-5.321,10.994,10.994,0,0,0-2.759-3.941,6.633,6.633,0,0,0-3.35-1.576,18.7,18.7,0,0,0-3.941-.394h-7.883V78.32h8.08a18.13,18.13,0,0,0,3.744-.394m-8.671-2.365V58.416h4.73a17.243,17.243,0,0,1,3.941.394,4.933,4.933,0,0,1,2.759,2.562,10.93,10.93,0,0,1,1.182,5.518,13.538,13.538,0,0,1-.591,4.336,7.271,7.271,0,0,1-1.576,2.759,4.089,4.089,0,0,1-1.971,1.182,14.671,14.671,0,0,1-3.547.394Z" transform="translate(-541.399 -31.396)" fill="#3f4d63"/>
          <path id="Trazado_1923" data-name="Trazado 1923" d="M424.5,142.79h10.363v-2.3H424.5V134.73h11.021v-2.3H422.035v18.916h13.981v-2.3H424.5Z" transform="translate(-241.544 -75.334)" fill="#556b8f"/>
          <path id="Trazado_1924" data-name="Trazado 1924" d="M475.3,147.232l-10.034-14.8H462.8v18.916h2.3v-14.8l10.034,14.8h2.468V132.428h-2.3Z" transform="translate(-264.877 -75.335)" fill="#556b8f"/>
          <path id="Trazado_1925" data-name="Trazado 1925" d="M533.6,147.176a3.737,3.737,0,0,1-2.632.987,4.141,4.141,0,0,1-3.29-1.481c-.822-.987-1.316-2.632-1.316-5.1a7.7,7.7,0,0,1,1.316-4.934,4.248,4.248,0,0,1,3.454-1.481,4.97,4.97,0,0,1,2.632.822,3.025,3.025,0,0,1,1.316,2.3l3.783-.822a8.685,8.685,0,0,0-1.974-3.454,8.012,8.012,0,0,0-5.593-1.974,8.2,8.2,0,0,0-6.415,2.632,10.163,10.163,0,0,0-2.467,7.237,10.016,10.016,0,0,0,2.467,7.073,8.424,8.424,0,0,0,6.251,2.632,7.993,7.993,0,0,0,4.935-1.481,7.643,7.643,0,0,0,2.8-4.606l-3.619-1.151a5.312,5.312,0,0,1-1.645,2.8" transform="translate(-298.997 -75.114)" fill="#556b8f"/>
          <rect id="Rectángulo_1671" data-name="Rectángulo 1671" width="3.783" height="18.916" transform="translate(242.996 57.093)" fill="#556b8f"/>
          <path id="Trazado_1926" data-name="Trazado 1926" d="M585.881,151.344h3.783v-8.06H597.4v-3.125h-7.731v-4.441h9.047v-3.29h-12.83Z" transform="translate(-335.319 -75.334)" fill="#556b8f"/>
          <path id="Trazado_1927" data-name="Trazado 1927" d="M635.909,144.6a10.451,10.451,0,0,0-1.974-1.645,5.525,5.525,0,0,0,3.783-1.809,5.308,5.308,0,0,0,1.316-3.454,5.682,5.682,0,0,0-.822-2.961,4.548,4.548,0,0,0-2.138-1.809,13.538,13.538,0,0,0-4.441-.494h-8.06v18.916h3.783v-7.9h.822a6.775,6.775,0,0,1,1.974.165,1.9,1.9,0,0,1,1.151.822c.329.494.987,1.316,1.974,2.8l2.8,4.112h4.606l-2.3-3.619c-1.151-1.48-1.974-2.467-2.467-3.125m-5.922-4.112h-2.8v-4.77h5.757a3.1,3.1,0,0,1,1.481.658,2.011,2.011,0,0,1,.494,1.48,4.8,4.8,0,0,1-.329,1.481c-.164.494-.658.658-.987.822a12.582,12.582,0,0,1-3.619.329" transform="translate(-356.891 -75.335)" fill="#556b8f"/>
          <path id="Trazado_1928" data-name="Trazado 1928" d="M670.591,132.428l-7.4,18.916H667.3l1.481-4.277h7.566l1.645,4.277h4.112l-7.567-18.916Zm-.658,11.514,2.467-6.909,2.632,6.909Z" transform="translate(-379.564 -75.335)" fill="#556b8f"/>
          <path id="Trazado_1929" data-name="Trazado 1929" d="M722.668,140.981a13.346,13.346,0,0,0-4.112-1.316,7.034,7.034,0,0,1-3.454-1.316,1.492,1.492,0,0,1-.494-1.151,1.241,1.241,0,0,1,.658-1.151,4.174,4.174,0,0,1,2.632-.658,3.676,3.676,0,0,1,2.467.658,2.93,2.93,0,0,1,.987,2.138l3.783-.165a5.1,5.1,0,0,0-1.809-4.112,8.034,8.034,0,0,0-5.263-1.481,9.148,9.148,0,0,0-3.783.658,4.628,4.628,0,0,0-2.3,1.974,5.459,5.459,0,0,0-.823,2.632,4.917,4.917,0,0,0,1.81,3.783,11.788,11.788,0,0,0,4.276,1.809,24.1,24.1,0,0,1,3.125.822,2.027,2.027,0,0,1,1.316.822,2.374,2.374,0,0,1,.329,1.151,2.274,2.274,0,0,1-.987,1.809,4.356,4.356,0,0,1-2.8.822,4.7,4.7,0,0,1-2.8-.822,4.083,4.083,0,0,1-1.316-2.8l-3.619.329c.329,2.138.987,3.783,2.3,4.77a8.881,8.881,0,0,0,5.428,1.645,10.279,10.279,0,0,0,4.112-.658,4.565,4.565,0,0,0,2.467-2.138,6.7,6.7,0,0,0,.822-2.961,5.68,5.68,0,0,0-.822-2.961,5.347,5.347,0,0,0-2.138-2.138" transform="translate(-406.64 -75.335)" fill="#556b8f"/>
          <rect id="Rectángulo_1672" data-name="Rectángulo 1672" width="1.784" height="64.15" transform="translate(162.074 16.709)" fill="#3f4d63"/>
        </g>
      </g>
    </g>
  </g>
</svg>
