<svg xmlns="http://www.w3.org/2000/svg" xmlns:xlink="http://www.w3.org/1999/xlink" width="273" height="60" viewBox="0 0 273 60">
  <defs>
    <clipPath id="clip-path">
      <rect id="Rectángulo_1674" data-name="Rectángulo 1674" width="273" height="60" fill="none"/>
    </clipPath>
  </defs>
  <g id="Grupo_627" data-name="Grupo 627" transform="translate(0 0.363)">
    <g id="Grupo_626" data-name="Grupo 626" transform="translate(0 -0.363)" clip-path="url(#clip-path)">
      <g id="Grupo_625" data-name="Grupo 625">
        <g id="Grupo_624" data-name="Grupo 624" clip-path="url(#clip-path)">
          <g id="Grupo_623" data-name="Grupo 623" opacity="0">
            <g id="Grupo_622" data-name="Grupo 622">
              <g id="Grupo_621" data-name="Grupo 621" clip-path="url(#clip-path)">
                <rect id="Rectángulo_1663" data-name="Rectángulo 1663" width="273" height="60" fill="#fff"/>
              </g>
            </g>
          </g>
          <path id="Trazado_1891" data-name="Trazado 1891" d="M42.249,55.575A51.239,51.239,0,0,0,56.413,79.384,48.963,48.963,0,0,0,77.9,67.839a3.358,3.358,0,0,1-.369-.359h0a6.145,6.145,0,0,0-3.71-1.659c-2.606-.177-6,3.7-6,3.7h0A10.861,10.861,0,1,1,69.269,57.8v0s2.355,4.88,4.9,5.348a6.366,6.366,0,0,0,4.063-.722h0a3.356,3.356,0,0,1,.841-.393,51.515,51.515,0,0,0-12.511-20.46A53.73,53.73,0,0,0,42.249,55.575m25.322-8.939a2.619,2.619,0,1,1-2.618-2.619,2.618,2.618,0,0,1,2.618,2.619" transform="translate(-31.082 -30.298)" fill="#a2c86e"/>
          <path id="Trazado_1892" data-name="Trazado 1892" d="M173.842,84.723q.464,1.715.816,3.462,1.017,2.253,1.8,4.584.736-1.679,1.33-3.4a45.841,45.841,0,0,0-3.946-4.647" transform="translate(-127.894 -62.047)" fill="#ffb300"/>
          <path id="Trazado_1893" data-name="Trazado 1893" d="M93.35,39.607q-1.746-.819-3.529-1.5A50.986,50.986,0,0,0,85.128,42.3q1.974-.553,3.99-.963,2.085-.958,4.232-1.732" transform="translate(-62.628 -27.754)" fill="#ffb300"/>
          <path id="Trazado_1894" data-name="Trazado 1894" d="M113.139,174.817q1.748.756,3.54,1.361a46.734,46.734,0,0,0,4.888-4.286q-1.738.523-3.514.923a49.4,49.4,0,0,1-4.914,2" transform="translate(-83.235 -126.176)" fill="#ffb300"/>
          <path id="Trazado_1895" data-name="Trazado 1895" d="M40.33,112.313q-.831,1.8-1.516,3.635a51.606,51.606,0,0,0,4.494,4.893q-.618-1.992-1.078-4.036c-.7-1.472-1.337-2.973-1.9-4.492" transform="translate(-28.555 -82.345)" fill="#ffb300"/>
          <path id="Trazado_1896" data-name="Trazado 1896" d="M62.188,151.084q1.444.146,2.908.2a51.037,51.037,0,0,1-6.6-9.127,47.574,47.574,0,0,0,3.691,8.927" transform="translate(-43.036 -104.3)" fill="#a8e1f5"/>
          <path id="Trazado_1897" data-name="Trazado 1897" d="M153.229,147.962q.155-1.358.227-2.733a49.7,49.7,0,0,1-8.582,6.173,47.1,47.1,0,0,0,8.356-3.441" transform="translate(-106.582 -106.561)" fill="#a8e1f5"/>
          <path id="Trazado_1898" data-name="Trazado 1898" d="M50.2,60.347q-.115,1.586-.129,3.194a54.9,54.9,0,0,1,9.963-6.93A52.62,52.62,0,0,0,50.2,60.347" transform="translate(-36.837 -41.364)" fill="#a8e1f5"/>
          <path id="Trazado_1899" data-name="Trazado 1899" d="M149.02,49.609q-1.494-.125-3.007-.159a53.188,53.188,0,0,1,6.5,9.411,51.892,51.892,0,0,0-3.5-9.251" transform="translate(-107.42 -36.097)" fill="#a8e1f5"/>
          <path id="Trazado_1900" data-name="Trazado 1900" d="M87.042,106.343a5.423,5.423,0,1,1,5.9,4.9,5.425,5.425,0,0,1-5.9-4.9" transform="translate(-64.018 -73.593)" fill="#00a4dc"/>
          <path id="Trazado_1901" data-name="Trazado 1901" d="M178.969,126.636a1.688,1.688,0,1,1,1.837,1.526,1.688,1.688,0,0,1-1.837-1.526" transform="translate(-131.66 -91.525)" fill="#00a4dc"/>
          <path id="Trazado_1902" data-name="Trazado 1902" d="M123.19,57.1a1.31,1.31,0,1,1,1.311,1.309A1.311,1.311,0,0,1,123.19,57.1" transform="translate(-90.63 -40.758)" fill="#00a4dc"/>
          <path id="Trazado_1903" data-name="Trazado 1903" d="M203.293,65.505c-2.82-1.29-3.96-2.039-3.96-3.689,0-1.29,1.05-2.549,3.389-2.549a8.882,8.882,0,0,1,4.109.99l.93-3.629a11.171,11.171,0,0,0-4.949-1.05c-4.979,0-7.948,2.909-7.948,6.688,0,3,2.16,5.159,5.638,6.658,2.55,1.11,3.66,2.1,3.66,3.749,0,1.71-1.29,2.88-3.749,2.88a10.347,10.347,0,0,1-4.979-1.29l-.005.026a3.374,3.374,0,0,1-.8,3.732,12.493,12.493,0,0,0,5.6,1.252c5.368,0,8.4-2.94,8.4-6.958,0-3.03-1.65-5.159-5.338-6.808" transform="translate(-143.189 -40.605)" fill="#00a4dc"/>
          <path id="Trazado_1904" data-name="Trazado 1904" d="M255.525,54.67a2.369,2.369,0,1,0,2.4,2.37,2.284,2.284,0,0,0-2.4-2.37" transform="translate(-186.244 -39.937)" fill="#00a4dc"/>
          <rect id="Rectángulo_1665" data-name="Rectángulo 1665" width="4.439" height="16.706" transform="translate(67.091 21.661)" fill="#00a4dc"/>
          <path id="Trazado_1905" data-name="Trazado 1905" d="M291.72,67.062v-.12a5.275,5.275,0,0,0,3.688-4.979,5.1,5.1,0,0,0-2.248-4.349c-1.589-1.11-3.569-1.47-6.358-1.47a32.926,32.926,0,0,0-5.849.48V79.3a36.3,36.3,0,0,0,4.92.3c4.108,0,6.688-.75,8.247-2.159a6.34,6.34,0,0,0,2.1-4.739,5.688,5.688,0,0,0-4.5-5.638m-6.358-7.468a9.138,9.138,0,0,1,1.949-.15c1.979,0,3.69.75,3.69,3.03,0,1.889-1.5,3.239-4.019,3.239h-1.62Zm1.77,16.676a9.212,9.212,0,0,1-1.77-.12v-7.2h1.649c2.28,0,4.56.96,4.56,3.629,0,2.61-2.04,3.689-4.439,3.689" transform="translate(-206.694 -41.022)" fill="#00a4dc"/>
          <path id="Trazado_1906" data-name="Trazado 1906" d="M207.245,154.961a1.739,1.739,0,0,0-1.554,1.033,5.915,5.915,0,0,0-.577,2.861,7.193,7.193,0,0,0,.266,2.072,3.052,3.052,0,0,0,.764,1.356,1.622,1.622,0,0,0,1.153.474,2.566,2.566,0,0,0,1.16-.243v.533a2.418,2.418,0,0,1-1.213.266,2.14,2.14,0,0,1-1.441-.533,3.4,3.4,0,0,1-.956-1.542,7.583,7.583,0,0,1-.337-2.394,6.141,6.141,0,0,1,.737-3.256,2.266,2.266,0,0,1,2.01-1.183,2.573,2.573,0,0,1,1.385.367l-.267.509a2.045,2.045,0,0,0-1.13-.32" transform="translate(-150.456 -113.311)" fill="#00a4dc"/>
          <path id="Trazado_1907" data-name="Trazado 1907" d="M225.547,166.213a4.914,4.914,0,0,1-.511,2.483,1.614,1.614,0,0,1-1.465.861,1.579,1.579,0,0,1-1.441-.861,5.012,5.012,0,0,1-.5-2.483q0-3.321,1.965-3.321a1.6,1.6,0,0,1,1.439.87,4.841,4.841,0,0,1,.514,2.451m-3.332,0a5.162,5.162,0,0,0,.331,2.1,1.088,1.088,0,0,0,1.035.71q1.38,0,1.38-2.811,0-2.788-1.38-2.788a1.084,1.084,0,0,0-1.044.7,5.208,5.208,0,0,0-.322,2.09" transform="translate(-163.05 -119.555)" fill="#00a4dc"/>
          <rect id="Rectángulo_1666" data-name="Rectángulo 1666" width="0.562" height="9.211" transform="translate(63.555 40.673)" fill="#00a4dc"/>
          <path id="Trazado_1908" data-name="Trazado 1908" d="M250.563,166.213a4.9,4.9,0,0,1-.513,2.483,1.614,1.614,0,0,1-1.465.861,1.58,1.58,0,0,1-1.441-.861,5,5,0,0,1-.5-2.483q0-3.321,1.965-3.321a1.6,1.6,0,0,1,1.438.87,4.84,4.84,0,0,1,.516,2.451m-3.333,0a5.162,5.162,0,0,0,.331,2.1,1.089,1.089,0,0,0,1.036.71q1.379,0,1.379-2.811,0-2.788-1.379-2.788a1.083,1.083,0,0,0-1.044.7,5.192,5.192,0,0,0-.323,2.09" transform="translate(-181.454 -119.555)" fill="#00a4dc"/>
          <path id="Trazado_1909" data-name="Trazado 1909" d="M270.891,169.439v-4.375q0-1.616-.947-1.616a.976.976,0,0,0-.938.566,3.793,3.793,0,0,0-.288,1.666v3.759h-.556v-4.375a2.493,2.493,0,0,0-.231-1.216.769.769,0,0,0-.717-.4.973.973,0,0,0-.93.58,4.5,4.5,0,0,0-.289,1.882v3.528h-.562v-6.422h.473l.047.894h.053a1.35,1.35,0,0,1,1.308-1.018,1.194,1.194,0,0,1,.841.284,1.642,1.642,0,0,1,.444.829,1.937,1.937,0,0,1,.569-.852,1.39,1.39,0,0,1,.875-.261,1.153,1.153,0,0,1,1.065.559,3.6,3.6,0,0,1,.338,1.791v4.2Z" transform="translate(-195.277 -119.555)" fill="#00a4dc"/>
          <path id="Trazado_1910" data-name="Trazado 1910" d="M295.012,155.489q1.883,0,1.883,3.309a5.315,5.315,0,0,1-.468,2.489,1.5,1.5,0,0,1-2.19.6,1.9,1.9,0,0,1-.627-.752h-.048l-.077.888h-.461v-9.211h.562v2.859l-.023.775h.048a1.55,1.55,0,0,1,1.4-.959m-.023.521a1.119,1.119,0,0,0-1.072.651,5.03,5.03,0,0,0-.332,2.137v.148q0,2.688,1.426,2.687a1.038,1.038,0,0,0,.975-.692,7.187,7.187,0,0,0,.009-4.232,1.048,1.048,0,0,0-1.006-.7" transform="translate(-215.575 -112.141)" fill="#00a4dc"/>
          <rect id="Rectángulo_1667" data-name="Rectángulo 1667" width="0.562" height="6.422" transform="translate(82.378 43.461)" fill="#00a4dc"/>
          <path id="Trazado_1911" data-name="Trazado 1911" d="M320.078,169.439l-.072-.9h-.023a1.49,1.49,0,0,1-1.4,1.018,1.207,1.207,0,0,1-1.008-.5,2.149,2.149,0,0,1-.382-1.341,1.937,1.937,0,0,1,.55-1.453,2.29,2.29,0,0,1,1.545-.583l.693-.036v-.533a2.873,2.873,0,0,0-.225-1.311.782.782,0,0,0-.746-.412,2.11,2.11,0,0,0-1.125.361l-.243-.444a2.624,2.624,0,0,1,1.4-.414,1.294,1.294,0,0,1,1.142.5,3.018,3.018,0,0,1,.349,1.672v4.375Zm-1.368-.361a1.034,1.034,0,0,0,.939-.595,3.475,3.475,0,0,0,.334-1.684v-.669l-.669.035a1.667,1.667,0,0,0-1.151.429,1.564,1.564,0,0,0-.376,1.134,1.7,1.7,0,0,0,.248,1.024.8.8,0,0,0,.675.325" transform="translate(-233.357 -119.555)" fill="#00a4dc"/>
          <path id="Trazado_1912" data-name="Trazado 1912" d="M311.912,153.274a.461.461,0,1,1-.462-.461.461.461,0,0,1,.462.461" transform="translate(-228.792 -112.14)" fill="#00a4dc"/>
          <path id="Trazado_1913" data-name="Trazado 1913" d="M429.83,62.573a4.875,4.875,0,0,0,1.461-1.218,2.8,2.8,0,0,0,.487-1.705,3.436,3.436,0,0,0-.487-1.827,3.872,3.872,0,0,0-1.461-1.34,7.12,7.12,0,0,0-2.558-.365h-5.237V70h5.359a10.92,10.92,0,0,0,2.192-.244,3.772,3.772,0,0,0,1.583-.731,2.949,2.949,0,0,0,.975-1.34,4.89,4.89,0,0,0,.365-1.827,3.073,3.073,0,0,0-.731-2.07,4.457,4.457,0,0,0-1.949-1.218M423.74,57.7h2.8a7.238,7.238,0,0,1,2.071.244,1.894,1.894,0,0,1,.974.731,2.213,2.213,0,0,1,0,2.436,1.774,1.774,0,0,1-1.1.731,6.468,6.468,0,0,1-1.705.122H423.74Zm6.455,9.378c-.244.365-.365.609-.731.731a11.488,11.488,0,0,1-1.1.365c-.243,0-.609.122-1.218.122h-3.532v-4.75h3.167a8.741,8.741,0,0,1,2.07.244,1.549,1.549,0,0,1,1.1.852,2.776,2.776,0,0,1,.366,1.34.907.907,0,0,1-.122,1.1" transform="translate(-310.487 -41.002)" fill="#3f4d63"/>
          <rect id="Rectángulo_1668" data-name="Rectángulo 1668" width="1.827" height="14.006" transform="translate(124.823 14.994)" fill="#3f4d63"/>
          <path id="Trazado_1914" data-name="Trazado 1914" d="M499.079,55.71a6.658,6.658,0,0,0-3.532-.974,6.519,6.519,0,0,0-4.871,1.948,7.843,7.843,0,0,0-1.827,5.481A7.208,7.208,0,0,0,489.7,65.7a6.74,6.74,0,0,0,2.314,2.557,6.657,6.657,0,0,0,3.532.975,6.758,6.758,0,0,0,3.41-.853,6.167,6.167,0,0,0,2.436-2.557,8.785,8.785,0,0,0,0-7.551,5.892,5.892,0,0,0-2.314-2.558m0,10.474a4.709,4.709,0,0,1-6.82,0,5.916,5.916,0,0,1-1.34-4.019c0-2.07.487-3.654,1.462-4.506a5,5,0,0,1,3.41-1.34,4.114,4.114,0,0,1,2.436.731A4.433,4.433,0,0,1,499.932,59a7.362,7.362,0,0,1,.609,2.923,6.823,6.823,0,0,1-1.461,4.263" transform="translate(-359.641 -39.986)" fill="#3f4d63"/>
          <path id="Trazado_1915" data-name="Trazado 1915" d="M558.469,56.875A4.1,4.1,0,0,0,556.4,55.9a11.557,11.557,0,0,0-2.436-.243h-4.75V69.663h4.993a10.92,10.92,0,0,0,2.192-.243,4.271,4.271,0,0,0,1.7-.731,5.764,5.764,0,0,0,1.218-1.218,6.561,6.561,0,0,0,.974-2.07,9.77,9.77,0,0,0,.365-2.8,9.338,9.338,0,0,0-.487-3.289,7.264,7.264,0,0,0-1.705-2.436m-.122,8.4a4.494,4.494,0,0,1-.974,1.705,2.53,2.53,0,0,1-1.218.731,9.071,9.071,0,0,1-2.192.243H551.04v-10.6h2.923a10.659,10.659,0,0,1,2.436.243,3.048,3.048,0,0,1,1.7,1.583,6.448,6.448,0,0,1,.731,3.41,13.272,13.272,0,0,1-.487,2.679" transform="translate(-404.051 -40.663)" fill="#3f4d63"/>
          <rect id="Rectángulo_1669" data-name="Rectángulo 1669" width="1.827" height="14.006" transform="translate(159.412 14.994)" fill="#3f4d63"/>
          <path id="Trazado_1916" data-name="Trazado 1916" d="M624.595,69.663l5.48-14.006h-1.827l-3.776,10.109c-.243.731-.487,1.461-.731,2.314-.243-.731-.487-1.462-.731-2.314l-3.654-10.109h-1.949l5.359,14.006Z" transform="translate(-454.222 -40.663)" fill="#3f4d63"/>
          <path id="Trazado_1917" data-name="Trazado 1917" d="M682.135,67.958h-8.525V63.33H681.4V61.624h-7.794V57.362h8.282V55.657H671.783V69.663h10.352Z" transform="translate(-494.224 -40.663)" fill="#3f4d63"/>
          <path id="Trazado_1918" data-name="Trazado 1918" d="M722.575,63.791h2.192c.487,0,.853,0,.974.122.243.122.609.244.852.365a3.58,3.58,0,0,1,.974.975,17.242,17.242,0,0,1,1.34,1.948l1.827,2.923h2.314l-2.436-3.775a7.781,7.781,0,0,0-1.583-1.827,4.254,4.254,0,0,0-1.1-.731,4.7,4.7,0,0,0,2.923-1.34,3.7,3.7,0,0,0,.974-2.558,4.106,4.106,0,0,0-.609-2.07,2.88,2.88,0,0,0-1.583-1.34,8.666,8.666,0,0,0-2.8-.365h-6.212V70h1.827V63.791Zm0-6.211h4.384a4.034,4.034,0,0,1,2.314.609A1.963,1.963,0,0,1,730,59.772a2.059,2.059,0,0,1-.365,1.218,2.655,2.655,0,0,1-1.1.853,4.465,4.465,0,0,1-1.949.243h-4.019Z" transform="translate(-530.158 -41.002)" fill="#3f4d63"/>
          <path id="Trazado_1919" data-name="Trazado 1919" d="M780.082,62.355a13.992,13.992,0,0,0-3.045-.853,7.658,7.658,0,0,1-2.8-.974,1.564,1.564,0,0,1-.487-1.218,1.736,1.736,0,0,1,.731-1.461,4.187,4.187,0,0,1,2.436-.609,3.635,3.635,0,0,1,2.436.731,2.75,2.75,0,0,1,.974,1.948l1.827-.122a3.4,3.4,0,0,0-.731-2.192,4.43,4.43,0,0,0-1.827-1.461,6.552,6.552,0,0,0-2.679-.487,5.646,5.646,0,0,0-2.558.487,3.824,3.824,0,0,0-1.705,1.34,3.682,3.682,0,0,0-.609,1.949,2.8,2.8,0,0,0,.487,1.705,5.2,5.2,0,0,0,1.462,1.34,11.529,11.529,0,0,0,2.679.852,8.344,8.344,0,0,1,2.436.731,2.41,2.41,0,0,1,1.218.853,1.965,1.965,0,0,1,.365,1.1,2.059,2.059,0,0,1-.365,1.218,2.409,2.409,0,0,1-1.218.852,4.885,4.885,0,0,1-1.827.365,6.366,6.366,0,0,1-2.192-.365,2.756,2.756,0,0,1-1.462-1.1,3.557,3.557,0,0,1-.609-1.705l-1.705.122a4.5,4.5,0,0,0,.731,2.557,4.429,4.429,0,0,0,1.949,1.705,8.142,8.142,0,0,0,3.166.609,6.191,6.191,0,0,0,2.679-.487,3.874,3.874,0,0,0,1.827-1.583,4.487,4.487,0,0,0,.609-2.071,3.368,3.368,0,0,0-.609-1.948c-.365-.487-.73-1.462-1.583-1.827" transform="translate(-567.448 -40.663)" fill="#3f4d63"/>
          <rect id="Rectángulo_1670" data-name="Rectángulo 1670" width="1.827" height="14.006" transform="translate(217.871 14.994)" fill="#3f4d63"/>
          <path id="Trazado_1920" data-name="Trazado 1920" d="M853.008,68.689a5.783,5.783,0,0,0,1.218-1.218A6.565,6.565,0,0,0,855.2,65.4a9.758,9.758,0,0,0,.365-2.8,9.335,9.335,0,0,0-.487-3.288,6.8,6.8,0,0,0-1.705-2.436,4.1,4.1,0,0,0-2.07-.974,11.556,11.556,0,0,0-2.436-.244h-4.75V69.663h4.994a10.92,10.92,0,0,0,2.192-.244,4.268,4.268,0,0,0,1.705-.731m-4.141-.731h-2.923v-10.6h2.923a10.657,10.657,0,0,1,2.436.244,3.048,3.048,0,0,1,1.705,1.583,6.754,6.754,0,0,1,.731,3.41,8.368,8.368,0,0,1-.365,2.68,4.494,4.494,0,0,1-.974,1.705,2.526,2.526,0,0,1-1.218.731,11.2,11.2,0,0,1-2.314.244" transform="translate(-621.009 -40.663)" fill="#3f4d63"/>
          <path id="Trazado_1921" data-name="Trazado 1921" d="M902.079,69.663h2.07l-5.724-14.006h-1.948l-5.359,14.006h1.949L894.65,65.4H900.5Zm-6.942-5.724L896.72,59.8a10.973,10.973,0,0,0,.731-2.679c.244.731.487,1.705.974,2.923l1.462,3.9Z" transform="translate(-655.587 -40.663)" fill="#3f4d63"/>
          <path id="Trazado_1922" data-name="Trazado 1922" d="M953.26,69.419a4.268,4.268,0,0,0,1.705-.731,5.785,5.785,0,0,0,1.218-1.218,6.565,6.565,0,0,0,.974-2.071,9.769,9.769,0,0,0,.365-2.8,9.336,9.336,0,0,0-.487-3.288,6.793,6.793,0,0,0-1.705-2.436,4.1,4.1,0,0,0-2.07-.974,11.555,11.555,0,0,0-2.436-.244h-4.872V69.663h4.994a11.205,11.205,0,0,0,2.314-.244M947.9,67.958v-10.6h2.923a10.657,10.657,0,0,1,2.436.244,3.049,3.049,0,0,1,1.705,1.583,6.755,6.755,0,0,1,.731,3.41,8.366,8.366,0,0,1-.365,2.68,4.492,4.492,0,0,1-.974,1.705,2.527,2.527,0,0,1-1.218.731,9.067,9.067,0,0,1-2.192.244Z" transform="translate(-695.928 -40.663)" fill="#3f4d63"/>
          <path id="Trazado_1923" data-name="Trazado 1923" d="M423.56,138.832h6.4v-1.423h-6.4v-3.558h6.811v-1.423h-8.336v11.691h8.641v-1.423H423.56Z" transform="translate(-310.487 -97.142)" fill="#556b8f"/>
          <path id="Trazado_1924" data-name="Trazado 1924" d="M470.53,141.577l-6.2-9.149H462.8v11.69h1.423v-9.149l6.2,9.149h1.525v-11.69H470.53Z" transform="translate(-340.48 -97.143)" fill="#556b8f"/>
          <path id="Trazado_1925" data-name="Trazado 1925" d="M529.332,141.4a2.309,2.309,0,0,1-1.627.61,2.559,2.559,0,0,1-2.033-.915,4.893,4.893,0,0,1-.813-3.151,4.762,4.762,0,0,1,.813-3.05,2.625,2.625,0,0,1,2.135-.915,3.072,3.072,0,0,1,1.627.508,1.87,1.87,0,0,1,.813,1.423l2.338-.508a5.367,5.367,0,0,0-1.22-2.135,4.951,4.951,0,0,0-3.456-1.22,5.07,5.07,0,0,0-3.965,1.627,6.281,6.281,0,0,0-1.525,4.473,6.19,6.19,0,0,0,1.525,4.371,5.206,5.206,0,0,0,3.863,1.627,4.939,4.939,0,0,0,3.05-.915,4.723,4.723,0,0,0,1.728-2.846l-2.237-.712a3.283,3.283,0,0,1-1.016,1.728" transform="translate(-384.339 -96.86)" fill="#556b8f"/>
          <rect id="Rectángulo_1671" data-name="Rectángulo 1671" width="2.338" height="11.691" transform="translate(150.178 35.285)" fill="#556b8f"/>
          <path id="Trazado_1926" data-name="Trazado 1926" d="M585.881,144.118h2.338v-4.981H593v-1.932h-4.778v-2.745h5.591v-2.033h-7.929Z" transform="translate(-431.027 -97.142)" fill="#556b8f"/>
          <path id="Trazado_1927" data-name="Trazado 1927" d="M631.2,139.951a6.46,6.46,0,0,0-1.22-1.017,3.415,3.415,0,0,0,2.338-1.118,3.28,3.28,0,0,0,.813-2.135,3.512,3.512,0,0,0-.508-1.83,2.811,2.811,0,0,0-1.322-1.118,8.367,8.367,0,0,0-2.745-.305h-4.981v11.691h2.338v-4.88h.508a4.187,4.187,0,0,1,1.22.1,1.176,1.176,0,0,1,.711.508c.2.305.61.813,1.22,1.728l1.728,2.542h2.846l-1.423-2.237c-.712-.915-1.22-1.525-1.525-1.932m-3.66-2.541H625.81v-2.948h3.558a1.916,1.916,0,0,1,.915.407,1.243,1.243,0,0,1,.305.915,2.968,2.968,0,0,1-.2.915c-.1.305-.406.407-.61.508a7.776,7.776,0,0,1-2.237.2" transform="translate(-458.757 -97.143)" fill="#556b8f"/>
          <path id="Trazado_1928" data-name="Trazado 1928" d="M667.763,132.428l-4.574,11.691h2.541l.915-2.643h4.676l1.017,2.643h2.542L670.2,132.428Zm-.406,7.116,1.525-4.27,1.627,4.27Z" transform="translate(-487.902 -97.143)" fill="#556b8f"/>
          <path id="Trazado_1929" data-name="Trazado 1929" d="M718.019,137.714a8.248,8.248,0,0,0-2.541-.813,4.347,4.347,0,0,1-2.135-.813.922.922,0,0,1-.3-.712.767.767,0,0,1,.407-.712,2.579,2.579,0,0,1,1.626-.407,2.272,2.272,0,0,1,1.525.407,1.811,1.811,0,0,1,.61,1.322l2.338-.1a3.155,3.155,0,0,0-1.118-2.541,4.965,4.965,0,0,0-3.253-.915,5.653,5.653,0,0,0-2.338.406,2.86,2.86,0,0,0-1.423,1.22,3.374,3.374,0,0,0-.508,1.627,3.039,3.039,0,0,0,1.118,2.338,7.285,7.285,0,0,0,2.643,1.118,14.89,14.89,0,0,1,1.931.508,1.253,1.253,0,0,1,.813.508,1.468,1.468,0,0,1,.2.712,1.405,1.405,0,0,1-.61,1.118,2.692,2.692,0,0,1-1.728.508,2.907,2.907,0,0,1-1.728-.508,2.524,2.524,0,0,1-.813-1.728l-2.237.2a4.293,4.293,0,0,0,1.423,2.948,5.489,5.489,0,0,0,3.355,1.017,6.352,6.352,0,0,0,2.542-.407,2.821,2.821,0,0,0,1.525-1.322,4.142,4.142,0,0,0,.508-1.83,3.51,3.51,0,0,0-.508-1.83,3.3,3.3,0,0,0-1.322-1.322" transform="translate(-522.705 -97.143)" fill="#556b8f"/>
          <rect id="Rectángulo_1672" data-name="Rectángulo 1672" width="1.102" height="39.646" transform="translate(100.166 10.327)" fill="#3f4d63"/>
        </g>
      </g>
    </g>
  </g>
</svg>
