<svg xmlns="http://www.w3.org/2000/svg" width="21.886" height="15.774" viewBox="0 0 21.886 15.774">
  <path id="Trazado_1930" data-name="Trazado 1930" d="M20.254,9.481A2.6,2.6,0,0,0,18.425,7.64C16.811,7.2,10.343,7.2,10.343,7.2s-6.469,0-8.082.435A2.6,2.6,0,0,0,.432,9.481,27.281,27.281,0,0,0,0,14.492,27.293,27.293,0,0,0,.432,19.5a2.6,2.6,0,0,0,1.829,1.84c1.613.435,8.082.435,8.082.435s6.468,0,8.082-.435a2.6,2.6,0,0,0,1.829-1.84,27.292,27.292,0,0,0,.432-5.012,27.281,27.281,0,0,0-.432-5.011m-12.027,7.1V12.3A.515.515,0,0,1,9,11.855l3.748,2.132a.582.582,0,0,1,0,1.012l-3.656,2.08a.577.577,0,0,1-.862-.5" transform="translate(0.6 -6.605)" fill="none" stroke="#2f444c" stroke-width="1.2"/>
</svg>
